<svg xmlns="http://www.w3.org/2000/svg" viewBox="0 0 100 110">
  <defs>
    <linearGradient id="bg" x1="0%" y1="0%" x2="100%" y2="100%">
      <stop offset="0%" stop-color="#F0D68A"/>
      <stop offset="50%" stop-color="#D4A843"/>
      <stop offset="100%" stop-color="#A67C2E"/>
    </linearGradient>
    <linearGradient id="ch" x1="50%" y1="0%" x2="50%" y2="100%">
      <stop offset="0%" stop-color="#D4A843"/>
      <stop offset="100%" stop-color="#8B6914"/>
    </linearGradient>
  </defs>
  <!-- Chain ring -->
  <ellipse cx="50" cy="8" rx="5" ry="6" stroke="#A67C2E" stroke-width="2" fill="none"/>
  <!-- Mount cap -->
  <path d="M42,14 L58,14 L56,20 L44,20 Z" fill="url(#ch)"/>
  <!-- Bell dome — wide rounded top -->
  <path d="M44,20 C44,20 34,24 28,36 C22,48 20,58 18,68 C16,76 14,82 10,90 L90,90 C86,82 84,76 82,68 C80,58 78,48 72,36 C66,24 56,20 56,20 Z" fill="url(#bg)"/>
  <!-- Highlight -->
  <path d="M46,22 C46,22 40,26 36,36 C32,46 30,56 29,66 C28,72 27,78 25,84 L40,84 C40,76 40,62 42,48 C43,38 45,28 46,22 Z" fill="white" opacity="0.06"/>
  <!-- Ridges -->
  <path d="M26,54 Q50,50 74,54" stroke="#C4960C" stroke-width="1" fill="none" opacity="0.3"/>
  <path d="M22,68 Q50,64 78,68" stroke="#C4960C" stroke-width="1" fill="none" opacity="0.3"/>
  <path d="M16,82 Q50,78 84,82" stroke="#C4960C" stroke-width="1" fill="none" opacity="0.25"/>
  <!-- Wide flared rim -->
  <path d="M10,90 C10,90 8,94 8,96 C8,99 14,102 50,102 C86,102 92,99 92,96 C92,94 90,90 90,90 Z" fill="#8B6914"/>
  <path d="M14,91 C14,91 13,94 13,95 C13,97 20,99 50,99 C80,99 87,97 87,95 C87,94 86,91 86,91 Z" fill="url(#bg)" opacity="0.5"/>
  <!-- Clapper -->
  <line x1="50" y1="58" x2="50" y2="88" stroke="#5A4510" stroke-width="3" stroke-linecap="round"/>
  <circle cx="50" cy="90" r="6" fill="#8B6914"/>
  <circle cx="50" cy="90" r="3.5" fill="#A67C2E"/>
</svg>
